<?xml version="1.0" encoding="utf-8"?>
<!-- Generator: Adobe Illustrator 24.3.0, SVG Export Plug-In . SVG Version: 6.00 Build 0)  -->
<svg version="1.1"
	 id="svg3310" xmlns:cc="http://creativecommons.org/ns#" xmlns:dc="http://purl.org/dc/elements/1.1/" xmlns:inkscape="http://www.inkscape.org/namespaces/inkscape" xmlns:rdf="http://www.w3.org/1999/02/22-rdf-syntax-ns#" xmlns:svg="http://www.w3.org/2000/svg"
	 xmlns="http://www.w3.org/2000/svg" xmlns:xlink="http://www.w3.org/1999/xlink" x="0px" y="0px" width="74.9px" height="74.9px"
	 viewBox="0 0 74.9 74.9" style="enable-background:new 0 0 74.9 74.9;" xml:space="preserve">
<style type="text/css">
	.st0{fill:#00ADD0;}
	.st1{fill:#FFFFFF;}
</style>
<circle id="circle" class="st0" cx="37.45" cy="37.45" r="28.56"/>
<path class="st1" d="M46.22,44.9c0,1.43,0,2.84,0,4.25c-5.85,0-11.69,0-17.54,0c0-7.83,0-15.66,0-23.5c5.58,0,11.15,0,16.73,0
	c0,1.26,0,2.53,0,3.81c-4.14,0-8.27,0-12.42,0c0,1.69,0,3.36,0,5.04c3.12,0,6.24,0,9.36,0c0,1.3,0,2.59,0,3.89
	c-3.12,0-6.24,0-9.36,0c0,2.17,0,4.33,0,6.5C37.4,44.9,41.8,44.9,46.22,44.9z"/>
</svg>
