<svg xmlns="http://www.w3.org/2000/svg" width="400" height="400">
  <g fill-rule="evenodd">
    <path fill="#fff" d="M178.7.272c-2.393.086-4.3.326-4.3.542 0 .214-1.337.386-3 .386-1.65 0-3 .153-3 .34 0 .187-1.839.46-4.088.608-2.248.147-4.264.444-4.48.66-.215.215-.986.392-1.712.392s-1.32.18-1.32.4c0 .22-.81.4-1.8.4s-1.8.18-1.8.4c0 .22-.63.4-1.4.4-.77 0-1.4.18-1.4.4 0 .22-.72.4-1.6.4-.88 0-1.6.162-1.6.359 0 .198-1.26.486-2.8.641-1.54.155-2.8.443-2.8.641 0 .197-.54.359-1.2.359-.66 0-1.2.18-1.2.4 0 .22-.45.4-1 .4s-1 .18-1 .4c0 .22-.63.4-1.4.4-.77 0-1.4.157-1.4.348 0 .192-.893.467-1.984.612-1.091.145-2.091.438-2.223.652-.132.213-.59.388-1.017.388-.427 0-.776.18-.776.4 0 .22-.45.4-1 .4s-1 .18-1 .4c0 .22-.36.4-.8.4-.44 0-.8.18-.8.4 0 .22-.45.4-1 .4s-1 .164-1 .365c0 .201-.72.486-1.6.635-.88.149-1.6.434-1.6.635s-.45.365-1 .365-1 .18-1 .4c0 .22-.36.4-.8.4-.44 0-.8.18-.8.4 0 .22-.36.4-.8.4-.44 0-.8.18-.8.4 0 .22-.179.4-.397.4-.683 0-3.603 1.373-3.603 1.694 0 .168-.36.306-.8.306-.44 0-.8.18-.8.4 0 .22-.36.4-.8.4-.44 0-.8.18-.8.4 0 .22-.27.4-.6.4-.33 0-.6.16-.6.355 0 .196-.63.474-1.4.619-.77.144-1.4.434-1.4.644 0 .21-.32.382-.712.382-.391 0-.971.36-1.288.8-.317.44-.897.8-1.288.8-.392 0-.712.16-.712.357 0 .196-.45.469-1 .607s-1 .428-1 .644c0 .215-.36.392-.8.392-.44 0-.8.18-.8.4 0 .22-.23.4-.512.4-.281 0-.771.36-1.088.8-.317.44-.897.8-1.288.8-.392 0-.712.168-.712.373s-.405.501-.9.657c-.495.157-1.17.575-1.5.93-.33.355-1.095.9-1.7 1.21-.605.311-1.1.715-1.1.898 0 .182-.262.332-.582.332-.32 0-1.032.45-1.582 1s-1.168 1-1.373 1c-.205 0-.798.538-1.318 1.196-.52.658-1.247 1.198-1.616 1.2-.369.002-1.025.454-1.458 1.004-.432.55-1.009 1-1.282 1-.272 0-.786.324-1.142.721-.356.396-1.367 1.251-2.247 1.9-.88.648-2.343 1.944-3.252 2.879-.909.935-1.809 1.7-2 1.7-.342-.001-.842.459-4.663 4.283-2.349 2.352-1.877 1.88-6.2 6.202-4.322 4.323-3.85 3.851-6.202 6.2-3.824 3.821-4.284 4.321-4.283 4.663 0 .191-.765 1.091-1.7 2-.935.909-2.231 2.372-2.879 3.252-.649.88-1.504 1.891-1.9 2.247-.397.356-.721.87-.721 1.142 0 .273-.45.85-1 1.282-.55.433-1.002 1.089-1.004 1.458-.002.369-.542 1.096-1.2 1.616-.658.52-1.196 1.113-1.196 1.318 0 .205-.45.823-1 1.373s-1 1.222-1 1.494c0 .271-.36.753-.8 1.07-.44.317-.8.897-.8 1.288 0 .392-.152.712-.337.712-.185 0-.676.63-1.091 1.4-.415.77-.893 1.4-1.063 1.4-.17 0-.309.32-.309.712 0 .391-.36.971-.8 1.288-.44.317-.8.807-.8 1.088 0 .282-.18.512-.4.512-.22 0-.4.36-.4.8 0 .44-.177.8-.392.8-.216 0-.506.45-.644 1s-.411 1-.607 1c-.197 0-.357.294-.357.653 0 .359-.316.944-.702 1.3-.796.734-2.098 3.378-2.098 4.261 0 .322-.18.586-.4.586-.22 0-.4.27-.4.6 0 .33-.18.6-.4.6-.22 0-.4.36-.4.8 0 .44-.18.8-.4.8-.22 0-.4.36-.4.8 0 .44-.18.8-.4.8-.22 0-.4.27-.4.6 0 .33-.16.6-.355.6-.196 0-.474.63-.619 1.4-.144.77-.434 1.4-.644 1.4-.21 0-.382.36-.382.8 0 .44-.18.8-.4.8-.22 0-.4.36-.4.8 0 .44-.155.8-.345.8-.19 0-.663 1.035-1.052 2.3-.388 1.265-.863 2.471-1.054 2.68-.192.209-.349.794-.349 1.3s-.18.92-.4.92c-.22 0-.4.36-.4.8 0 .44-.18.8-.4.8-.22 0-.4.45-.4 1s-.18 1-.4 1c-.22 0-.4.339-.4.754s-.269 1.27-.598 1.9c-.328.63-.598 1.641-.6 2.246-.001.605-.182 1.1-.402 1.1-.22 0-.4.45-.4 1s-.18 1-.4 1c-.22 0-.4.63-.4 1.4 0 .77-.18 1.4-.4 1.4-.22 0-.4.529-.4 1.176 0 .647-.159 1.275-.353 1.395-.195.12-.477 1.208-.628 2.417-.151 1.21-.442 2.303-.647 2.429-.205.127-.372.85-.372 1.607s-.18 1.376-.4 1.376c-.22 0-.4.81-.4 1.8s-.18 1.8-.4 1.8c-.22 0-.4.619-.4 1.376 0 .757-.18 1.488-.4 1.624-.22.136-.4.878-.4 1.65 0 .771-.173 1.725-.384 2.12-.211.394-.507 2.632-.659 4.973-.151 2.341-.428 4.257-.616 4.257s-.341 1.245-.341 2.767c0 1.857-.164 2.821-.5 2.933-.732.244-.732 50.356 0 50.6.331.11.5 1.036.5 2.733 0 1.412.153 2.567.341 2.567.188 0 .465 1.916.616 4.257.152 2.341.448 4.579.659 4.973.211.395.384 1.349.384 2.12 0 .772.18 1.514.4 1.65.22.136.4.867.4 1.624 0 .757.18 1.376.4 1.376.22 0 .4.81.4 1.8s.18 1.8.4 1.8c.22 0 .4.619.4 1.376 0 .757.167 1.48.372 1.607.205.126.496 1.219.647 2.429.151 1.209.433 2.297.628 2.417.194.12.353.748.353 1.395s.18 1.176.4 1.176c.22 0 .4.45.4 1s.18 1 .4 1c.22 0 .4.63.4 1.4 0 .77.169 1.4.375 1.4.207 0 .498.812.647 1.805.149.993.43 1.903.624 2.024.195.12.354.658.354 1.195s.18.976.4.976c.22 0 .4.45.4 1s.18 1 .4 1c.22 0 .4.36.4.8 0 .44.18.8.4.8.22 0 .4.339.4.754s.269 1.27.598 1.9c.328.63.598 1.461.6 1.846.001.385.182.7.402.7.22 0 .4.45.4 1s.18 1 .4 1c.22 0 .4.36.4.8 0 .44.18.8.4.8.22 0 .4.36.4.8 0 .44.18.8.4.8.22 0 .4.207.4.46 0 .631 2.095 4.908 2.485 5.073.173.074.315.479.315.9 0 .422.18.767.4.767.22 0 .4.27.4.6 0 .33.18.6.4.6.22 0 .4.264.4.586 0 .813 1.276 3.414 1.674 3.414.179 0 .326.27.326.6 0 .33.18.6.4.6.22 0 .4.36.4.8 0 .44.16.8.357.8.196 0 .469.45.607 1s.428 1 .644 1c.215 0 .392.36.392.8 0 .44.18.8.4.8.22 0 .4.23.4.512 0 .281.36.771.8 1.088.44.317.8.897.8 1.288 0 .392.168.712.373.712s.501.405.657.9c.157.495.619 1.191 1.027 1.547.409.356.743.901.743 1.212 0 .31.36.824.8 1.141.44.317.8.799.8 1.07 0 .272.45.944 1 1.494s1 1.168 1 1.373c0 .205.538.798 1.196 1.318.658.52 1.198 1.217 1.2 1.549.004.683 1.833 2.796 2.42 2.796.211 0 .384.36.384.8 0 .44.135.801.3.803.165.001.75.669 1.3 1.484s2.035 2.527 3.3 3.805c1.265 1.278 2.3 2.482 2.3 2.676 0 .582 18.415 18.832 19.001 18.832.129 0 1.382 1.17 2.784 2.6 1.402 1.43 2.736 2.6 2.963 2.6.227 0 1.025.63 1.773 1.4.748.77 1.591 1.4 1.874 1.4.284 0 1.037.611 1.675 1.358.637.746 1.693 1.578 2.345 1.848.652.27 1.185.649 1.185.843 0 .193.188.351.418.351.23 0 .881.462 1.445 1.027.565.565 1.412 1.195 1.882 1.399 1.263.55 2.361 1.285 3.096 2.074.359.385.829.7 1.044.7.215 0 .702.344 1.082.764.381.42 1.129.874 1.662 1.008.534.134.971.42.971.636 0 .215.188.392.417.392.229 0 .803.36 1.275.8.472.44 1.095.8 1.383.8.289 0 .527.135.529.3.002.165.812.655 1.8 1.09.988.434 1.796.929 1.796 1.1 0 .17.36.31.8.31.44 0 .8.18.8.4 0 .22.27.4.6.4.33 0 .6.162.6.36 0 .199.809.694 1.799 1.1.989.407 1.799.875 1.8 1.04 0 .165.361.3.801.3.44 0 .8.18.8.4 0 .22.36.4.8.4.44 0 .8.18.8.4 0 .22.27.4.6.4.33 0 .6.18.6.4 0 .22.269.4.597.4.834 0 3.803 1.323 3.803 1.694 0 .168.36.306.8.306.44 0 .8.18.8.4 0 .22.45.4 1 .4s1 .18 1 .4c0 .22.349.4.776.4.427 0 .878.164 1.002.365.125.201.945.487 1.824.635.879.149 1.598.434 1.598.635s.45.365 1 .365 1 .18 1 .4c0 .22.272.4.605.4.581 0 .965.15 2.836 1.104.463.236 1.678.555 2.7.708 1.023.153 1.859.438 1.859.633s.54.355 1.2.355c.66 0 1.2.18 1.2.4 0 .22.45.4 1 .4s1 .18 1 .4c0 .22.529.4 1.176.4.647 0 1.288.18 1.424.4.136.22.766.4 1.4.4.634 0 1.258.17 1.386.377.128.207 1.488.5 3.023.651 1.535.152 2.791.432 2.791.624 0 .191.63.348 1.4.348.77 0 1.4.18 1.4.4 0 .22.81.4 1.8.4s1.8.18 1.8.4c0 .22.81.4 1.8.4s1.8.164 1.8.365c0 .201 2.16.494 4.8.651 2.64.158 4.8.444 4.8.635 0 .192.975.349 2.167.349 1.377 0 2.227.182 2.333.5.244.731 50.429.731 51.16 0 .275-.275 1.364-.5 2.42-.5 1.056 0 1.92-.157 1.92-.349 0-.191 2.16-.477 4.8-.635 2.64-.157 4.8-.45 4.8-.651s.81-.365 1.8-.365 1.8-.18 1.8-.4c0-.22.63-.4 1.4-.4.77 0 1.4-.18 1.4-.4 0-.22.799-.4 1.776-.4s1.872-.154 1.989-.343c.116-.188 1.13-.452 2.252-.584 2.05-.243 4.385-.869 5.678-1.522.382-.193 1.237-.351 1.9-.351.663 0 1.205-.18 1.205-.4 0-.22.45-.4 1-.4s1-.18 1-.4c0-.22.54-.4 1.2-.4.66 0 1.2-.157 1.2-.349 0-.192.765-.469 1.7-.616 1.922-.302 3.9-1.08 3.9-1.533 0-.166.54-.302 1.2-.302.66 0 1.2-.18 1.2-.4 0-.22.45-.4 1-.4s1-.157 1-.35c0-.192.539-.458 1.198-.59.658-.131 1.952-.604 2.875-1.05.922-.445 1.913-.81 2.202-.81.289 0 .525-.18.525-.4 0-.22.27-.4.6-.4.33 0 .6-.18.6-.4 0-.22.332-.4.739-.4.406 0 1.261-.248 1.9-.55.638-.303 1.746-.797 2.461-1.098.715-.301 1.3-.683 1.3-.85 0-.166.36-.302.8-.302.44 0 .8-.14.8-.31 0-.171.808-.666 1.796-1.1.988-.435 1.798-.925 1.8-1.09.002-.165.364-.3.804-.3.44 0 .8-.136.8-.302 0-.167.585-.558 1.3-.87.715-.312 1.57-.872 1.9-1.244.331-.372 1.151-.797 1.823-.945.672-.148 1.476-.622 1.788-1.054.311-.432.886-.785 1.277-.785.392 0 .712-.18.712-.4 0-.22.27-.4.6-.4.33 0 .6-.158.6-.351 0-.194.546-.578 1.214-.855.667-.276 1.548-.928 1.957-1.448.409-.52 1.033-.946 1.387-.946.353 0 .642-.18.642-.4 0-.22.294-.4.654-.4.36 0 1.071-.45 1.581-1s1.166-1 1.458-1c.292 0 .79-.36 1.107-.8.317-.44.73-.8.917-.8.187 0 .591-.225.898-.5 1.3-1.166 1.772-1.5 2.12-1.5.203 0 1-.72 1.771-1.6.772-.88 1.67-1.6 1.997-1.6.328 0 1.133-.63 1.791-1.4.658-.77 1.432-1.4 1.72-1.4.288 0 1.475-.99 2.637-2.2 1.163-1.21 2.298-2.2 2.523-2.2.528 0 18.026-17.49 18.026-18.018 0-.22.99-1.374 2.2-2.565 1.21-1.191 2.2-2.381 2.2-2.646 0-.265.63-1.019 1.4-1.677.77-.658 1.4-1.463 1.4-1.791 0-.327.72-1.225 1.6-1.997.88-.771 1.6-1.651 1.6-1.954 0-.304.168-.552.373-.552s.494-.381.642-.848c.148-.466.79-1.393 1.427-2.059.637-.666 1.158-1.436 1.158-1.71 0-.273.27-.601.6-.728.33-.126.6-.523.6-.882s.54-1.156 1.2-1.773c.66-.617 1.2-1.319 1.2-1.56 0-.242.153-.44.339-.44.187 0 .664-.72 1.061-1.6.397-.88.874-1.6 1.061-1.6.186 0 .339-.27.339-.6 0-.33.18-.6.4-.6.22 0 .4-.278.4-.617 0-.339.367-1.01.815-1.492.449-.481.928-1.329 1.064-1.883.137-.554.549-1.278.915-1.608.367-.33.922-1.185 1.234-1.9.312-.715.703-1.3.87-1.3.166 0 .302-.36.302-.8 0-.44.166-.8.368-.8.203 0 .497-.585.654-1.3.157-.714.621-1.591 1.032-1.947.41-.356.746-.941.746-1.3 0-.359.138-.653.306-.653.417 0 1.694-3.017 1.694-4.003 0-.438.18-.797.4-.797.22 0 .4-.36.4-.8 0-.44.146-.8.325-.8.179 0 .573-.63.875-1.4.302-.77.696-1.4.875-1.4.179 0 .325-.54.325-1.2 0-.66.172-1.2.382-1.2.21 0 .5-.63.644-1.4.145-.77.423-1.4.619-1.4.195 0 .355-.45.355-1s.18-1 .4-1c.22 0 .4-.54.4-1.2 0-.66.136-1.2.302-1.2.453 0 1.231-1.978 1.533-3.9.147-.935.424-1.7.616-1.7s.349-.54.349-1.2c0-.66.18-1.2.4-1.2.22 0 .4-.63.4-1.4 0-.77.18-1.4.4-1.4.22 0 .4-.439.4-.976 0-.537.18-1.088.4-1.224.22-.136.4-.852.4-1.59 0-.739.178-1.403.396-1.477.218-.073.514-1.258.657-2.633.144-1.375.415-2.5.604-2.5s.343-.81.343-1.8.18-1.8.4-1.8c.22 0 .4-.81.4-1.8s.18-1.8.4-1.8c.22 0 .4-.795.4-1.767 0-.971.172-1.826.383-1.9.21-.073.507-2.068.659-4.433.152-2.365.429-4.3.617-4.3s.341-1.065.341-2.367c0-1.537.175-2.425.5-2.533.731-.244.731-49.229 0-49.96-.285-.285-.5-1.497-.5-2.82 0-1.276-.153-2.32-.341-2.32-.188 0-.465-1.935-.617-4.3-.152-2.365-.449-4.36-.659-4.433-.211-.074-.383-1.008-.383-2.077 0-1.068-.18-2.054-.4-2.19-.22-.136-.4-.867-.4-1.624 0-.757-.18-1.376-.4-1.376-.22 0-.4-.81-.4-1.8s-.147-1.8-.326-1.8c-.18 0-.529-1.215-.777-2.7-.726-4.351-.967-5.3-1.342-5.3-.195 0-.355-.619-.355-1.376 0-.757-.18-1.488-.4-1.624-.22-.136-.4-.687-.4-1.224 0-.537-.18-.976-.4-.976-.22 0-.4-.54-.4-1.2 0-.66-.163-1.2-.362-1.2-.2 0-.487-.9-.638-2-.151-1.1-.438-2-.638-2-.199 0-.362-.36-.362-.8 0-.44-.18-.8-.4-.8-.22 0-.4-.54-.4-1.2 0-.66-.18-1.2-.4-1.2-.22 0-.4-.45-.4-1s-.135-1-.3-1c-.165 0-.653-1.17-1.085-2.6-.432-1.43-.927-2.6-1.1-2.6-.173 0-.315-.27-.315-.6 0-.33-.18-.6-.4-.6-.22 0-.4-.36-.4-.8 0-.44-.18-.8-.4-.8-.22 0-.4-.45-.4-1s-.18-1-.4-1c-.22 0-.4-.269-.4-.597 0-.834-1.323-3.803-1.694-3.803-.168 0-.306-.36-.306-.8 0-.44-.143-.8-.318-.8-.175 0-.652-.81-1.06-1.8-.409-.99-.895-1.8-1.082-1.8-.187 0-.34-.36-.34-.8 0-.44-.18-.8-.4-.8-.22 0-.4-.27-.4-.6 0-.33-.18-.6-.4-.6-.22 0-.4-.294-.4-.653 0-.359-.336-.944-.746-1.3-.411-.356-.867-1.198-1.015-1.87-.148-.672-.622-1.476-1.054-1.788-.432-.311-.785-.886-.785-1.277 0-.392-.18-.712-.4-.712-.22 0-.4-.27-.4-.6 0-.33-.147-.6-.326-.6-.179 0-.628-.585-.997-1.3-.985-1.905-1.591-2.809-2.377-3.541-.385-.359-.7-.814-.7-1.01 0-.196-.45-.842-1-1.436-.55-.593-1-1.316-1-1.607 0-.291-.36-.789-.8-1.106-.44-.317-.8-.73-.8-.917 0-.187-.225-.591-.5-.898-1.168-1.302-1.5-1.772-1.5-2.123 0-.205-.538-.797-1.196-1.317-.658-.52-1.198-1.18-1.2-1.468-.002-.288-.814-1.322-1.804-2.298-.99-.976-1.8-1.973-1.8-2.216 0-.242-1.17-1.582-2.6-2.978-1.43-1.395-2.6-2.729-2.6-2.965 0-.521-16.731-17.22-17.253-17.22-.204 0-1.523-1.17-2.932-2.6-1.409-1.43-2.745-2.6-2.969-2.6-.224 0-1.019-.63-1.767-1.4-.748-.77-1.612-1.401-1.919-1.401-.308-.001-.92-.546-1.36-1.212-.44-.666-1.25-1.323-1.8-1.46s-1.431-.761-1.958-1.388c-.527-.626-1.136-1.139-1.353-1.139-.217 0-.686-.334-1.042-.743-.356-.408-1.052-.87-1.547-1.027-.495-.156-.9-.452-.9-.657 0-.205-.272-.373-.604-.373-.332 0-1.163-.535-1.846-1.188-.684-.653-1.582-1.295-1.997-1.427-.414-.131-.753-.407-.753-.612 0-.205-.294-.373-.653-.373-.359 0-.944-.329-1.3-.73-.356-.402-1.232-.986-1.947-1.298-.715-.312-1.3-.676-1.3-.809 0-.134-.81-.576-1.8-.985-.99-.408-1.8-.885-1.8-1.06 0-.175-.27-.318-.6-.318-.33 0-.6-.18-.6-.4 0-.22-.283-.4-.629-.4-.345 0-.898-.27-1.228-.6-.33-.33-.947-.6-1.372-.6-.424 0-.771-.18-.771-.4 0-.22-.27-.4-.6-.4-.33 0-.6-.18-.6-.4 0-.22-.345-.4-.767-.4-.421 0-.826-.142-.9-.315-.165-.39-4.442-2.485-5.073-2.485-.253 0-.46-.18-.46-.4 0-.22-.36-.4-.8-.4-.44 0-.8-.18-.8-.4 0-.22-.45-.4-1-.4s-1-.18-1-.4c0-.22-.36-.4-.8-.4-.44 0-.8-.169-.8-.375 0-.207-.81-.497-1.8-.646-.99-.148-1.8-.429-1.8-.624s-.36-.355-.8-.355c-.44 0-.8-.18-.8-.4 0-.22-.36-.4-.8-.4-.44 0-.8-.18-.8-.4 0-.22-.362-.4-.805-.4-.443 0-1.163-.18-1.6-.4-.437-.22-1.129-.565-1.536-.767-.408-.201-1.578-.492-2.6-.645-1.023-.153-1.859-.438-1.859-.633s-.54-.355-1.2-.355c-.66 0-1.2-.18-1.2-.4 0-.22-.45-.4-1-.4s-1-.18-1-.4c0-.22-.54-.4-1.2-.4-.66 0-1.2-.162-1.2-.359 0-.198-1.26-.486-2.8-.641-1.54-.155-2.8-.443-2.8-.641 0-.197-.63-.359-1.4-.359-.77 0-1.4-.18-1.4-.4 0-.22-.72-.4-1.6-.4-.88 0-1.6-.18-1.6-.4 0-.22-.81-.4-1.8-.4s-1.8-.18-1.8-.4c0-.22-.594-.4-1.32-.4-.726 0-1.497-.177-1.712-.392-.216-.216-2.232-.513-4.48-.66-2.249-.148-4.088-.421-4.088-.608s-1.224-.34-2.72-.34c-1.548 0-2.922-.202-3.189-.469-.469-.469-36.855-.824-46.991-.459m37.366 1.92C285.598 8.326 345.41 48.548 376.724 110.23c9.674 19.057 14.698 34.518 19.097 58.77 2.611 14.391 2.876 39.057.615 57.2-1.972 15.827-8.052 38.171-13.823 50.8-.301.66-1.26 2.82-2.129 4.8C343.035 367.05 245.577 414.868 154 392.924 73.006 373.516 12.931 306.355 2.802 223.892-10.415 116.29 65.436 18.161 173.4 3.188c11.459-1.589 30.82-2.041 42.666-.996M97.6 125.461c-31.193 2.335-49.306 18.663-48.279 43.523.497 12.048 5.244 20.418 15.329 27.033 6.732 4.415 13.64 7.05 28.75 10.968 2.86.741 7.72 2.009 10.8 2.817 20.042 5.257 26.6 9.999 26.6 19.233 0 10.129-8.87 16.191-24.638 16.839-18.296.752-30.427-7.402-32.206-21.649-.525-4.206.924-3.85-15.181-3.73L44.6 220.6l-.137 2c-1.434 20.876 16.124 40.089 41.137 45.017 40.994 8.077 73.429-9.723 74.301-40.775.592-21.108-11.646-34.583-36.901-40.629-1.54-.369-3.43-.835-4.2-1.036-.77-.201-3.2-.814-5.4-1.361-31.391-7.806-35.549-10.208-34.898-20.165.613-9.365 8.348-14.599 21.498-14.545 15.31.063 24.282 6.013 25.796 17.109.514 3.764-1.192 3.385 15.231 3.385H155.6l-.008-2.3c-.06-17.594-13.461-34.001-31.592-38.679-.55-.142-1.9-.502-3-.801-5.436-1.476-18.118-2.755-23.4-2.359m80.585 3.839c-.105.275-.144 31.19-.088 68.7l.103 68.2 14.4.112c7.92.061 14.805.012 15.3-.108l.9-.219V128.8h-15.213c-11.802 0-15.255.112-15.402.5m57.114 68.2.101 68.7H265l.21-26.8c.115-14.74.25-26.861.3-26.935.341-.514 35.726.283 37.89.853 10.742 2.828 14.353 9.45 16.184 29.682 1.017 11.233 1.318 13.779 2.017 17.038.405 1.891 1.011 4.096 1.347 4.9l.611 1.462h14.597c15.581 0 15.494.013 14.273-2.069-2.44-4.165-3.28-9.282-4.618-28.131-1.467-20.672-6.714-30.099-19.111-34.336-1.231-.42-.767-.904 2.134-2.224 16.44-7.483 23.499-29.668 15.467-48.61-4.685-11.05-15.434-19.094-28.901-21.628-2.713-.51-9.212-.602-42.701-.602h-39.501l.101 68.7m66.987-45.07c11.429 1.274 16.415 6.6 16.824 17.97.422 11.716-4.41 18.284-14.71 19.995-1.672.278-9.097.392-20.8.319l-18.2-.114-.115-18c-.063-9.9-.01-18.585.118-19.3l.233-1.3h16.398c9.031 0 18.129.193 20.252.43"/>
    <path fill="#0f2b51" d="M182.4 2.224C83.063 11.141 5.488 92.248 1.653 191.2c-4.78 123.368 99.735 219.911 222.547 205.571 67.229-7.85 129.28-53.499 156.284-114.971.869-1.98 1.828-4.14 2.129-4.8 3.805-8.326 8.409-23.022 11.341-36.2 4.546-20.436 5.379-52.442 1.867-71.8-4.399-24.252-9.423-39.713-19.097-58.77C340.056 38.001 262.715-4.986 182.4 2.224M108 125.808c3.891.26 10.066 1.216 13 2.012 1.1.299 2.45.659 3 .801 18.131 4.678 31.532 21.085 31.592 38.679l.008 2.3h-14.573c-16.423 0-14.717.379-15.231-3.385-1.514-11.096-10.486-17.046-25.796-17.109-13.15-.054-20.885 5.18-21.498 14.545-.651 9.957 3.507 12.359 34.898 20.165 2.2.547 4.63 1.16 5.4 1.361.77.201 2.66.667 4.2 1.036 25.255 6.046 37.493 19.521 36.901 40.629-.872 31.052-33.307 48.852-74.301 40.775-25.013-4.928-42.571-24.141-41.137-45.017l.137-2 14.175-.105c16.105-.12 14.656-.476 15.181 3.73 1.779 14.247 13.91 22.401 32.206 21.649 15.768-.648 24.638-6.71 24.638-16.839 0-9.234-6.558-13.976-26.6-19.233-3.08-.808-7.94-2.076-10.8-2.817-15.11-3.918-22.018-6.553-28.75-10.968-10.085-6.615-14.832-14.985-15.329-27.033-1.027-24.86 17.086-41.188 48.279-43.523 1.843-.138 4.413-.052 10.4.347m100.8 71.584v68.593l-.9.219c-.495.12-7.38.169-15.3.108l-14.4-.112-.103-68.2c-.056-37.51-.017-68.425.088-68.7.147-.388 3.6-.5 15.402-.5H208.8v68.592m108.6-67.99c13.467 2.534 24.216 10.578 28.901 21.628 2.44 5.755 3.06 8.973 3.036 15.77-.057 16.113-6.371 27.318-18.503 32.84-2.901 1.32-3.365 1.804-2.134 2.224 12.397 4.237 17.644 13.664 19.111 34.336 1.338 18.849 2.178 23.966 4.618 28.131 1.221 2.082 1.308 2.069-14.273 2.069h-14.597l-.611-1.462c-.336-.804-.942-3.009-1.347-4.9-.699-3.259-1-5.805-2.017-17.038-1.831-20.232-5.442-26.854-16.184-29.682-2.164-.57-37.549-1.367-37.89-.853-.05.074-.185 12.195-.3 26.935l-.21 26.8h-29.6l-.101-68.7-.101-68.7h39.501c33.489 0 39.988.092 42.701.602M265.403 153.3c-.128.715-.181 9.4-.118 19.3l.115 18 18.2.114c23.337.146 25.73-.225 30.401-4.714 7.599-7.301 6.883-24.803-1.234-30.175-4.997-3.306-9.166-3.825-30.733-3.825h-16.398l-.233 1.3"/>
  </g>
</svg>